<svg width="57" height="47" viewBox="0 0 57 47" fill="none" xmlns="http://www.w3.org/2000/svg">
<path fill-rule="evenodd" clip-rule="evenodd" d="M54.5711 20.5016C54.5711 10.3009 46.0828 1.98929 35.5589 1.98929C25.035 1.98929 16.5466 10.3009 16.5466 20.5016C16.5466 22.5545 16.8895 24.5279 17.522 26.3714C20.2261 27.133 22.4577 29.0207 23.6775 31.4958C23.7084 31.4954 23.7393 31.4952 23.7703 31.4952C27.704 31.4952 30.912 34.6022 31.0742 38.496C32.5112 38.8343 34.0128 39.0138 35.5589 39.0138C46.0828 39.0138 54.5711 30.7022 54.5711 20.5016ZM30.888 40.4799C32.391 40.8134 33.9545 40.9893 35.5589 40.9893C47.1264 40.9893 56.5466 31.84 56.5466 20.5016C56.5466 9.16306 47.1264 0.0138092 35.5589 0.0138092C23.9914 0.0138092 14.5711 9.16306 14.5711 20.5016C14.5711 22.4111 14.839 24.2608 15.3404 26.016C15.1772 26.0079 15.0129 26.0039 14.8477 26.0039C9.64188 26.0039 5.38058 30.0445 5.03402 35.1581C2.2214 35.3919 0.0116234 37.7487 0.0116234 40.6217C0.0116234 43.6498 2.46633 46.1045 5.49436 46.1045C5.57661 46.1045 5.65844 46.1027 5.73981 46.0991H23.2714C23.4363 46.1102 23.6026 46.1158 23.7703 46.1158C27.2316 46.1158 30.131 43.7103 30.888 40.4799ZM16.6265 28.1858C16.5819 28.1791 16.5378 28.1693 16.4948 28.1566C15.9636 28.0434 15.4126 27.9839 14.8477 27.9839C10.6891 27.9839 7.286 31.2119 7.00949 35.2919L6.89439 36.9902L5.19805 37.1313C3.40322 37.2805 1.99163 38.7873 1.99163 40.6217C1.99163 42.5562 3.55985 44.1245 5.49436 44.1245C5.54753 44.1245 5.60031 44.1233 5.65268 44.121L5.69622 44.1191H5.73981H23.2714H23.3381L23.4046 44.1236C23.5251 44.1317 23.6471 44.1358 23.7703 44.1358C26.7142 44.1358 29.1006 41.7494 29.1006 38.8055C29.1006 35.8617 26.7142 33.4752 23.7703 33.4752C23.7475 33.4752 23.7248 33.4753 23.7022 33.4756L22.4535 33.4912L21.9015 32.3711C20.8726 30.2834 18.9454 28.7218 16.6265 28.1858Z" fill="url(#paint0_radial_2_951)"/>
<defs>
<radialGradient id="paint0_radial_2_951" cx="0" cy="0" r="1" gradientUnits="userSpaceOnUse" gradientTransform="translate(51.6251 0.0413953) rotate(133.501) scale(65.5884 72.1353)">
<stop stop-color="#00C2FF"/>
<stop offset="1" stop-color="#FF4BF8"/>
</radialGradient>
</defs>
</svg>
