<svg width="26" height="25" viewBox="0 0 26 25" fill="none" xmlns="http://www.w3.org/2000/svg">
<mask id="mask0_120_20" style="mask-type:alpha" maskUnits="userSpaceOnUse" x="0" y="0" width="26" height="25">
<ellipse cx="13" cy="12.5" rx="13" ry="12.5" fill="#C4C4C4"/>
</mask>
<g mask="url(#mask0_120_20)">
<g filter="url(#filter0_d_120_20)">
<ellipse cx="16.6181" cy="9.71554" rx="7.80576" ry="7.71554" fill="url(#paint0_radial_120_20)"/>
</g>
<path fill-rule="evenodd" clip-rule="evenodd" d="M6.57125 14.5809L6.57151 14.6366C6.38652 14.601 6.19548 14.5823 6.00008 14.5823C4.34323 14.5823 3.00008 15.9254 3.00008 17.5823C3.00008 19.2391 4.34323 20.5823 6.00008 20.5823C6.19545 20.5823 6.38646 20.5636 6.57142 20.5279V20.5761H12.3289C12.4093 20.5793 12.4901 20.5809 12.5713 20.5809C12.6524 20.5809 12.7332 20.5793 12.8136 20.5761H19.4286V20.5574C19.5693 20.5729 19.7123 20.5809 19.8572 20.5809C21.9875 20.5809 23.7144 18.854 23.7144 16.7238C23.7144 14.5935 21.9875 12.8666 19.8572 12.8666C19.3416 12.8666 18.8495 12.9678 18.3999 13.1514C17.7587 10.5279 15.3923 8.58093 12.5713 8.58093C9.25754 8.58093 6.57125 11.2672 6.57125 14.5809Z" fill="#1F2D61"/>
</g>
<defs>
<filter id="filter0_d_120_20" x="-68.1876" y="-71" width="169.611" height="169.431" filterUnits="userSpaceOnUse" color-interpolation-filters="sRGB">
<feFlood flood-opacity="0" result="BackgroundImageFix"/>
<feColorMatrix in="SourceAlpha" type="matrix" values="0 0 0 0 0 0 0 0 0 0 0 0 0 0 0 0 0 0 127 0" result="hardAlpha"/>
<feOffset dy="4"/>
<feGaussianBlur stdDeviation="38.5"/>
<feColorMatrix type="matrix" values="0 0 0 0 1 0 0 0 0 0.37 0 0 0 0 0.1 0 0 0 1 0"/>
<feBlend mode="normal" in2="BackgroundImageFix" result="effect1_dropShadow_120_20"/>
<feBlend mode="normal" in="SourceGraphic" in2="effect1_dropShadow_120_20" result="shape"/>
</filter>
<radialGradient id="paint0_radial_120_20" cx="0" cy="0" r="1" gradientUnits="userSpaceOnUse" gradientTransform="translate(10.1714 2.00923) rotate(51.9415) scale(20.2241 21.6227)">
<stop stop-color="#00C2FF"/>
<stop offset="1" stop-color="#FF4BF8"/>
</radialGradient>
</defs>
</svg>
