<svg width="58" height="42" viewBox="0 0 58 42" fill="none" xmlns="http://www.w3.org/2000/svg">
<path fill-rule="evenodd" clip-rule="evenodd" d="M12.0949 11.0718C13.0068 5.84961 17.4765 1.90737 22.8258 1.90737C28.8294 1.90737 33.7263 6.87511 33.7263 13.0405C33.7263 13.1521 33.7247 13.2633 33.7216 13.374L33.6952 14.2914L34.6128 14.306C37.3636 14.3498 39.6098 16.6429 39.6098 19.5012C39.6098 22.3875 37.3198 24.6969 34.5319 24.6969C33.0907 24.6969 31.7877 24.0835 30.8599 23.0899L30.1489 22.3285L29.4934 23.1382C27.9161 25.0866 25.5373 26.3207 22.88 26.3207C20.2706 26.3207 17.93 25.1308 16.3529 23.2431L15.6057 22.3488L14.9231 23.2934C13.6054 25.117 11.493 26.2907 9.11757 26.2907C5.15099 26.2907 1.90542 23.0068 1.90542 18.9186C1.90542 14.8304 5.15099 11.5465 9.11757 11.5465C9.75768 11.5465 10.377 11.6315 10.9661 11.7907L11.9242 12.0495L12.0949 11.0718ZM22.8258 0.0952129C16.8768 0.0952129 11.9006 4.24998 10.5042 9.84225C10.0518 9.77118 9.58871 9.73436 9.11757 9.73436C4.117 9.73436 0.0932617 13.863 0.0932617 18.9186C0.0932617 23.9742 4.117 28.1028 9.11757 28.1028C11.7176 28.1028 14.0568 26.9837 15.7001 25.2012C17.563 27.0145 20.092 28.1328 22.88 28.1328C25.7696 28.1328 28.3807 26.9315 30.2607 25.0004C31.4329 25.9433 32.9169 26.5091 34.5319 26.5091C38.3538 26.5091 41.422 23.3548 41.422 19.5012C41.422 15.9895 38.8745 13.0589 35.5301 12.5661C35.2851 5.65182 29.7067 0.0952129 22.8258 0.0952129ZM46.5156 26.3252C43.7033 26.3252 41.2469 27.8433 39.9205 30.1013C36.8819 30.3478 34.4928 32.8919 34.4928 35.994C34.4928 39.2593 37.1398 41.9063 40.4051 41.9063C41.5597 41.9063 42.6386 41.5745 43.5496 41.0014C44.4625 41.3858 45.4652 41.5981 46.5156 41.5981C47.7329 41.5981 48.8856 41.3131 49.9086 40.8058C50.7203 41.4937 51.7722 41.9098 52.9205 41.9098C55.4946 41.9098 57.5812 39.8231 57.5812 37.2491C57.5812 35.0675 56.0828 33.2366 54.0585 32.7285C53.4682 29.0965 50.3156 26.3252 46.5156 26.3252ZM41.2833 31.3894C42.2352 29.4612 44.2213 28.1374 46.5156 28.1374C49.6035 28.1374 52.1304 30.536 52.3325 33.5678L52.3844 34.3457L53.1613 34.4105C54.6214 34.5322 55.7691 35.7571 55.7691 37.2491C55.7691 38.8223 54.4937 40.0976 52.9205 40.0976C52.0526 40.0976 51.2759 39.7105 50.7521 39.0964L50.2468 38.5041L49.5852 38.9143C48.6943 39.4668 47.6437 39.7859 46.5156 39.7859C45.5615 39.7859 44.6634 39.5577 43.8706 39.1537L43.3599 38.8934L42.9059 39.2434C42.2137 39.7771 41.3477 40.0941 40.4051 40.0941C38.1406 40.0941 36.305 38.2584 36.305 35.994C36.305 33.7296 38.1406 31.8939 40.4051 31.8939C40.4231 31.8939 40.4411 31.894 40.4591 31.8943L41.0304 31.9016L41.2833 31.3894Z" fill="url(#paint0_radial_2_974)"/>
<defs>
<radialGradient id="paint0_radial_2_974" cx="0" cy="0" r="1" gradientUnits="userSpaceOnUse" gradientTransform="translate(5.09771 0.120234) rotate(43.2251) scale(63.0058 69.2567)">
<stop stop-color="#00C2FF"/>
<stop offset="1" stop-color="#FF4BF8"/>
</radialGradient>
</defs>
</svg>
