<svg width="33" height="21" viewBox="0 0 33 21" fill="none" xmlns="http://www.w3.org/2000/svg">
<path fill-rule="evenodd" clip-rule="evenodd" d="M5.1997 13.4964C5.1997 13.5328 5.19996 13.5691 5.20047 13.6053C4.91394 13.5352 4.6145 13.4981 4.30637 13.4981C2.2353 13.4981 0.556368 15.177 0.556368 17.2481C0.556368 19.3191 2.2353 20.9981 4.30637 20.9981C4.39054 20.9981 4.47407 20.9953 4.55686 20.9898V20.995H12.5525C12.6014 20.9959 12.6505 20.9964 12.6997 20.9964C12.7489 20.9964 12.798 20.9959 12.8469 20.995H21.5569V20.9249C23.8281 20.5348 25.5564 18.5559 25.5564 16.1732C25.5564 13.5104 23.3978 11.3518 20.735 11.3518C20.4534 11.3518 20.1775 11.3759 19.9092 11.4223C19.0094 8.28898 16.1223 5.9964 12.6997 5.9964C8.55756 5.9964 5.1997 9.35426 5.1997 13.4964Z" fill="#1F2D61"/>
<path fill-rule="evenodd" clip-rule="evenodd" d="M25.0189 9.99259C25.0316 9.99269 25.0444 9.99275 25.0572 9.99275C25.07 9.99275 25.0828 9.99269 25.0956 9.99259H30.1478C30.1722 9.99337 30.1967 9.99376 30.2213 9.99376C30.2459 9.99376 30.2704 9.99337 30.2948 9.99259H30.3711V9.98886C31.5439 9.91177 32.4713 8.93607 32.4713 7.74376C32.4713 6.50112 31.464 5.49376 30.2213 5.49376C29.9897 5.49376 29.7664 5.52875 29.5561 5.59372C29.5569 5.56015 29.5572 5.52649 29.5572 5.49275C29.5572 3.00746 27.5425 0.992744 25.0572 0.992744C22.5719 0.992744 20.5572 3.00746 20.5572 5.49275C20.5572 7.94926 22.5256 9.94604 24.9711 9.99194V9.99259H25.0189Z" fill="#1F2D61"/>
</svg>
