<svg width="30" height="31" viewBox="0 0 30 31" fill="none" xmlns="http://www.w3.org/2000/svg">
<path d="M5.35681 11.8076C5.35681 10.5163 6.1831 9.3699 7.40813 8.96156L10.8367 7.8187C11.4525 7.61343 12.1183 7.61343 12.7341 7.8187L17.2653 9.3291C17.8811 9.53437 18.5468 9.53437 19.1626 9.3291L20.6938 8.8187C22.6364 8.17117 24.6425 9.61708 24.6425 11.6647V19.2688C24.6425 20.5601 23.8162 21.7065 22.5912 22.1148L19.1626 23.2577C18.5468 23.4629 17.8811 23.4629 17.2653 23.2577L12.7341 21.7473C12.1183 21.542 11.4525 21.542 10.8367 21.7473L9.3055 22.2577C7.3629 22.9052 5.35681 21.4593 5.35681 19.4116V11.8076Z" stroke="#2C4E66" stroke-width="2.14286" stroke-linecap="round" stroke-linejoin="round"/>
</svg>
