<svg width="51" height="47" viewBox="0 0 51 47" fill="none" xmlns="http://www.w3.org/2000/svg">
<path fill-rule="evenodd" clip-rule="evenodd" d="M9.02322 15.1088C9.95375 7.66646 16.3049 1.90769 23.9997 1.90769C30.8828 1.90769 36.6921 6.51574 38.5063 12.817L38.7023 13.4978L39.4102 13.4718C39.5261 13.4675 39.6425 13.4654 39.7595 13.4654C44.9148 13.4654 49.094 17.6446 49.094 22.7998C49.094 27.9551 44.9148 32.1343 39.7595 32.1343C37.3248 32.1343 35.1095 31.2033 33.4471 29.6763L32.9245 29.1963L32.3332 29.5886C29.9455 31.1727 27.0818 32.0955 23.9997 32.0955C20.4631 32.0955 17.2128 30.8803 14.6401 28.8441L14.0685 28.3917L13.5042 28.8531C12.281 29.8532 10.7326 30.4489 9.04739 30.4489C5.11991 30.4489 1.90603 27.1973 1.90603 23.149C1.90603 19.3865 4.68461 16.3092 8.22897 15.8964L8.93503 15.8142L9.02322 15.1088ZM23.9997 0.0955353C15.6149 0.0955353 8.65685 6.19888 7.32388 14.2057C3.19184 15.0255 0.0938721 18.7288 0.0938721 23.149C0.0938721 28.1647 4.08592 32.261 9.04739 32.261C10.9116 32.261 12.6431 31.6804 14.0753 30.6896C16.8624 32.7136 20.2927 33.9077 23.9997 33.9077C27.2019 33.9077 30.1984 33.0166 32.7519 31.4686C34.6661 33.0177 37.1052 33.9464 39.7595 33.9464C45.9156 33.9464 50.9061 28.9559 50.9061 22.7998C50.9061 16.7386 46.0682 11.8073 40.0432 11.6568C37.8065 4.93988 31.4699 0.0955353 23.9997 0.0955353ZM25.6199 38.8649C25.8907 38.3835 25.72 37.7738 25.2386 37.5031C24.7573 37.2323 24.1475 37.403 23.8768 37.8844L19.7457 45.2285C19.4749 45.7099 19.6456 46.3196 20.127 46.5904C20.6084 46.8611 21.2181 46.6904 21.4888 46.2091L25.6199 38.8649ZM11.009 37.5031C11.4904 37.7738 11.6611 38.3835 11.3903 38.8649L7.25922 46.2091C6.98846 46.6904 6.37874 46.8611 5.89738 46.5904C5.41603 46.3196 5.24531 45.7099 5.51607 45.2285L9.64716 37.8844C9.91793 37.403 10.5276 37.2323 11.009 37.5031ZM39.8255 38.9046C40.1182 38.4363 39.9758 37.8194 39.5075 37.5266C39.0392 37.2339 38.4222 37.3763 38.1295 37.8446L33.5394 45.1888C33.2467 45.6571 33.3891 46.2741 33.8574 46.5668C34.3257 46.8595 34.9427 46.7171 35.2354 46.2488L39.8255 38.9046Z" fill="url(#paint0_radial_2_878)"/>
<defs>
<radialGradient id="paint0_radial_2_878" cx="0" cy="0" r="1" gradientUnits="userSpaceOnUse" gradientTransform="translate(4.51719 0.123433) rotate(49.8553) scale(62.9407 68.325)">
<stop stop-color="#00C2FF"/>
<stop offset="1" stop-color="#FF4BF8"/>
</radialGradient>
</defs>
</svg>
