<svg width="39" height="44" viewBox="0 0 39 44" fill="none" xmlns="http://www.w3.org/2000/svg">
<path fill-rule="evenodd" clip-rule="evenodd" d="M19.881 0.305603C20.4265 0.305603 20.8687 0.74783 20.8687 1.29334V7.01706L23.8988 3.60819C24.2612 3.20047 24.8856 3.16375 25.2933 3.52617C25.701 3.88859 25.7377 4.51291 25.3753 4.92063L20.8687 9.99056V20.3368L29.8685 15.1408L32.0052 8.70515C32.1771 8.18742 32.7361 7.90706 33.2539 8.07895C33.7716 8.25084 34.0519 8.80988 33.8801 9.32761L32.4437 13.654L37.4008 10.792C37.8732 10.5192 38.4773 10.6811 38.7501 11.1535C39.0228 11.626 38.861 12.2301 38.3885 12.5028L33.4291 15.3661L37.8975 16.2861C38.4318 16.3961 38.7758 16.9184 38.6658 17.4527C38.5558 17.987 38.0335 18.331 37.4992 18.221L30.854 16.8529L21.7968 22.0821L30.8395 27.3029L37.4997 25.9317C38.034 25.8217 38.5563 26.1657 38.6663 26.7C38.7763 27.2343 38.4323 27.7566 37.898 27.8666L33.4146 28.7896L38.3886 31.6614C38.8611 31.9342 39.0229 32.5383 38.7502 33.0107C38.4774 33.4831 37.8733 33.645 37.4009 33.3722L32.449 30.5132L33.8805 34.8251C34.0524 35.3428 33.7721 35.9019 33.2543 36.0737C32.7366 36.2456 32.1776 35.9653 32.0057 35.4476L29.8739 29.0265L20.8687 23.8274V34.1977L25.3753 39.2677C25.7377 39.6754 25.701 40.2997 25.2933 40.6621C24.8856 41.0245 24.2612 40.9878 23.8988 40.5801L20.8687 37.1712V42.906C20.8687 43.4515 20.4265 43.8938 19.881 43.8938C19.3355 43.8938 18.8932 43.4515 18.8932 42.906V37.172L15.8638 40.5801C15.5014 40.9878 14.8771 41.0245 14.4694 40.6621C14.0617 40.2997 14.0249 39.6754 14.3874 39.2677L18.8932 34.1985V23.7584L9.89752 28.9521L7.74613 35.4321C7.57425 35.9498 7.0152 36.2302 6.49748 36.0583C5.97975 35.8864 5.69939 35.3274 5.87128 34.8096L7.3224 30.4389L2.35092 33.3092C1.87849 33.5819 1.2744 33.42 1.00164 32.9476C0.728881 32.4752 0.890747 31.8711 1.36318 31.5983L6.27642 28.7617L1.85379 27.8511C1.31949 27.7411 0.975519 27.2188 1.08552 26.6845C1.19553 26.1502 1.71784 25.8062 2.25215 25.9162L8.85154 27.2749L17.8458 22.0821L8.93307 16.9363L2.25313 18.3116C1.71882 18.4216 1.1965 18.0776 1.0865 17.5433C0.976496 17.009 1.32046 16.4867 1.85477 16.3767L6.35794 15.4496L1.36325 12.5659C0.890817 12.2931 0.728951 11.689 1.00171 11.2166C1.27447 10.7442 1.87856 10.5823 2.35099 10.8551L7.29746 13.7109L5.87226 9.4182C5.70037 8.90048 5.98073 8.34143 6.49845 8.16955C7.01618 7.99766 7.57522 8.27802 7.74711 8.79574L9.87259 15.1977L18.8932 20.4057V9.98975L14.3874 4.92063C14.0249 4.51291 14.0617 3.88859 14.4694 3.52617C14.8771 3.16375 15.5014 3.20047 15.8638 3.60819L18.8932 7.01625V1.29334C18.8932 0.74783 19.3355 0.305603 19.881 0.305603Z" fill="url(#paint0_radial_2_839)"/>
<defs>
<radialGradient id="paint0_radial_2_839" cx="0" cy="0" r="1" gradientUnits="userSpaceOnUse" gradientTransform="translate(4.17829 0.331685) rotate(55.9843) scale(54.2667 55.4256)">
<stop stop-color="#00C2FF"/>
<stop offset="1" stop-color="#FF4BF8"/>
</radialGradient>
</defs>
</svg>
