<svg width="21" height="20" viewBox="0 0 21 20" fill="none" xmlns="http://www.w3.org/2000/svg">
<path d="M5.97306 9.99664H3.0564" stroke="#6686B6" stroke-width="2" stroke-linecap="round" stroke-linejoin="round"/>
<path d="M15.5556 9.99664L8.88892 9.99664" stroke="#6686B6" stroke-width="2" stroke-linecap="round" stroke-linejoin="round"/>
<path d="M5.13892 6.66505H10.9722C11.5248 6.66505 12.0547 6.44556 12.4454 6.05486C12.8361 5.66415 13.0556 5.13425 13.0556 4.58172C13.0556 4.02918 12.8361 3.49928 12.4454 3.10858C12.0547 2.71788 11.5248 2.49838 10.9722 2.49838M7.63892 13.3317H15.1389C15.6915 13.3317 16.2214 13.5512 16.6121 13.9419C17.0028 14.3326 17.2222 14.8625 17.2222 15.4151C17.2222 15.9676 17.0028 16.4975 16.6121 16.8882C16.2214 17.2789 15.6915 17.4984 15.1389 17.4984" stroke="#6686B6" stroke-width="2" stroke-linecap="round" stroke-linejoin="round"/>
</svg>
